<?xml version="1.0" encoding="UTF-8" standalone="no"?>
<!DOCTYPE svg PUBLIC "-//W3C//DTD SVG 1.1//EN"
 "http://www.w3.org/Graphics/SVG/1.1/DTD/svg11.dtd">
<!-- Generated by graphviz version 2.40.1 (20161225.0304)
 -->
<!-- Title: dependencies Pages: 1 -->
<svg width="556pt" height="284pt"
 viewBox="0.00 0.00 556.00 284.00" xmlns="http://www.w3.org/2000/svg" xmlns:xlink="http://www.w3.org/1999/xlink">
<g id="graph0" class="graph" transform="scale(1 1) rotate(0) translate(4 280)">
<title>dependencies</title>
<polygon fill="#ffffff" stroke="transparent" points="-4,4 -4,-280 552,-280 552,4 -4,4"/>
<text text-anchor="start" x="253.0091" y="-42.4" font-family="sans-serif" font-weight="bold" font-size="14.00" fill="#000000">Legend</text>
<polygon fill="#ffffb3" stroke="transparent" points="40,-10 40,-30 60,-30 60,-10 40,-10"/>
<text text-anchor="start" x="63.629" y="-15.4" font-family="sans-serif" font-size="14.00" fill="#000000"> &#160;Declarations</text>
<polygon fill="#8dd3c7" stroke="transparent" points="153,-10 153,-30 173,-30 173,-10 153,-10"/>
<text text-anchor="start" x="176.7251" y="-15.4" font-family="sans-serif" font-size="14.00" fill="#000000"> &#160;Module</text>
<polygon fill="#80b1d3" stroke="transparent" points="239,-10 239,-30 259,-30 259,-10 239,-10"/>
<text text-anchor="start" x="262.7812" y="-15.4" font-family="sans-serif" font-size="14.00" fill="#000000"> &#160;Bootstrap</text>
<polygon fill="#fdb462" stroke="transparent" points="336,-10 336,-30 356,-30 356,-10 336,-10"/>
<text text-anchor="start" x="359.6732" y="-15.4" font-family="sans-serif" font-size="14.00" fill="#000000"> &#160;Providers</text>
<polygon fill="#fb8072" stroke="transparent" points="432,-10 432,-30 452,-30 452,-10 432,-10"/>
<text text-anchor="start" x="455.7258" y="-15.4" font-family="sans-serif" font-size="14.00" fill="#000000"> &#160;Exports</text>
<g id="clust1" class="cluster">
<title>cluster_FeatureModule</title>
<polygon fill="none" stroke="#000000" stroke-dasharray="1,5" points="8,-70 8,-268 540,-268 540,-70 8,-70"/>
</g>
<g id="clust2" class="cluster">
<title>cluster_FeatureModule_declarations</title>
<polygon fill="none" stroke="#000000" points="268,-78 268,-130 532,-130 532,-78 268,-78"/>
</g>
<g id="clust5" class="cluster">
<title>cluster_FeatureModule_imports</title>
<polygon fill="none" stroke="#000000" points="16,-78 16,-130 260,-130 260,-78 16,-78"/>
</g>
<g id="clust6" class="cluster">
<title>cluster_FeatureModule_exports</title>
<polygon fill="none" stroke="#000000" points="126,-208 126,-260 398,-260 398,-208 126,-208"/>
</g>
<!-- LoginComponent -->
<g id="node1" class="node">
<title>LoginComponent</title>
<polygon fill="#ffffb3" stroke="#000000" points="524.2758,-122 409.7242,-122 409.7242,-86 524.2758,-86 524.2758,-122"/>
<text text-anchor="middle" x="467" y="-99.8" font-family="Times,serif" font-size="14.00" fill="#000000">LoginComponent</text>
</g>
<!-- FeatureModule -->
<g id="node3" class="node">
<title>FeatureModule</title>
<polygon fill="#8dd3c7" stroke="#000000" points="312.5285,-187 309.5285,-191 288.5285,-191 285.5285,-187 211.4715,-187 211.4715,-151 312.5285,-151 312.5285,-187"/>
<text text-anchor="middle" x="262" y="-164.8" font-family="Times,serif" font-size="14.00" fill="#000000">FeatureModule</text>
</g>
<!-- LoginComponent&#45;&gt;FeatureModule -->
<g id="edge1" class="edge">
<title>LoginComponent&#45;&gt;FeatureModule</title>
<path fill="none" stroke="#000000" d="M467,-122.1061C467,-141.3391 467,-169 467,-169 467,-169 322.6742,-169 322.6742,-169"/>
<polygon fill="#000000" stroke="#000000" points="322.6742,-165.5001 312.6742,-169 322.6741,-172.5001 322.6742,-165.5001"/>
</g>
<!-- HomeComponent -->
<g id="node2" class="node">
<title>HomeComponent</title>
<polygon fill="#ffffb3" stroke="#000000" points="391.5451,-122 276.4549,-122 276.4549,-86 391.5451,-86 391.5451,-122"/>
<text text-anchor="middle" x="334" y="-99.8" font-family="Times,serif" font-size="14.00" fill="#000000">HomeComponent</text>
</g>
<!-- HomeComponent&#45;&gt;FeatureModule -->
<g id="edge2" class="edge">
<title>HomeComponent&#45;&gt;FeatureModule</title>
<path fill="none" stroke="#000000" d="M294.4958,-122.1061C294.4958,-122.1061 294.4958,-140.991 294.4958,-140.991"/>
<polygon fill="#000000" stroke="#000000" points="290.9959,-140.9909 294.4958,-150.991 297.9959,-140.991 290.9959,-140.9909"/>
</g>
<!-- LoginComponent  -->
<g id="node6" class="node">
<title>LoginComponent </title>
<polygon fill="#fb8072" stroke="#000000" points="390.2759,-252 271.7241,-252 271.7241,-216 390.2759,-216 390.2759,-252"/>
<text text-anchor="middle" x="331" y="-229.8" font-family="Times,serif" font-size="14.00" fill="#000000">LoginComponent </text>
</g>
<!-- FeatureModule&#45;&gt;LoginComponent  -->
<g id="edge5" class="edge">
<title>FeatureModule&#45;&gt;LoginComponent </title>
<path fill="none" stroke="#000000" stroke-dasharray="5,2" d="M292.313,-187.1061C292.313,-187.1061 292.313,-205.991 292.313,-205.991"/>
<polygon fill="#000000" stroke="#000000" points="288.813,-205.9909 292.313,-215.991 295.813,-205.991 288.813,-205.9909"/>
</g>
<!-- HomeComponent  -->
<g id="node7" class="node">
<title>HomeComponent </title>
<polygon fill="#fb8072" stroke="#000000" points="253.5442,-252 134.4558,-252 134.4558,-216 253.5442,-216 253.5442,-252"/>
<text text-anchor="middle" x="194" y="-229.8" font-family="Times,serif" font-size="14.00" fill="#000000">HomeComponent </text>
</g>
<!-- FeatureModule&#45;&gt;HomeComponent  -->
<g id="edge6" class="edge">
<title>FeatureModule&#45;&gt;HomeComponent </title>
<path fill="none" stroke="#000000" stroke-dasharray="5,2" d="M232.3792,-187.1061C232.3792,-187.1061 232.3792,-205.991 232.3792,-205.991"/>
<polygon fill="#000000" stroke="#000000" points="228.8793,-205.9909 232.3792,-215.991 235.8793,-205.991 228.8793,-205.9909"/>
</g>
<!-- CommonModule -->
<g id="node4" class="node">
<title>CommonModule</title>
<polygon fill="#8dd3c7" stroke="#000000" points="251.6681,-122 248.6681,-126 227.6681,-126 224.6681,-122 140.3319,-122 140.3319,-86 251.6681,-86 251.6681,-122"/>
<text text-anchor="middle" x="196" y="-99.8" font-family="Times,serif" font-size="14.00" fill="#000000">CommonModule</text>
</g>
<!-- CommonModule&#45;&gt;FeatureModule -->
<g id="edge3" class="edge">
<title>CommonModule&#45;&gt;FeatureModule</title>
<path fill="none" stroke="#000000" d="M231.5351,-122.1061C231.5351,-122.1061 231.5351,-140.991 231.5351,-140.991"/>
<polygon fill="#000000" stroke="#000000" points="228.0351,-140.9909 231.5351,-150.991 235.0351,-140.991 228.0351,-140.9909"/>
</g>
<!-- SharedModule -->
<g id="node5" class="node">
<title>SharedModule</title>
<polygon fill="#8dd3c7" stroke="#000000" points="122.4231,-122 119.4231,-126 98.4231,-126 95.4231,-122 23.5769,-122 23.5769,-86 122.4231,-86 122.4231,-122"/>
<text text-anchor="middle" x="73" y="-99.8" font-family="Times,serif" font-size="14.00" fill="#000000">SharedModule</text>
</g>
<!-- SharedModule&#45;&gt;FeatureModule -->
<g id="edge4" class="edge">
<title>SharedModule&#45;&gt;FeatureModule</title>
<path fill="none" stroke="#000000" d="M73,-122.1061C73,-141.3391 73,-169 73,-169 73,-169 201.3515,-169 201.3515,-169"/>
<polygon fill="#000000" stroke="#000000" points="201.3515,-172.5001 211.3515,-169 201.3514,-165.5001 201.3515,-172.5001"/>
</g>
</g>
</svg>
