<?xml version="1.0" encoding="UTF-8" standalone="no"?>
<!DOCTYPE svg PUBLIC "-//W3C//DTD SVG 1.1//EN"
 "http://www.w3.org/Graphics/SVG/1.1/DTD/svg11.dtd">
<!-- Generated by graphviz version 2.40.1 (20161225.0304)
 -->
<!-- Title: dependencies Pages: 1 -->
<svg width="803pt" height="284pt"
 viewBox="0.00 0.00 803.00 284.00" xmlns="http://www.w3.org/2000/svg" xmlns:xlink="http://www.w3.org/1999/xlink">
<g id="graph0" class="graph" transform="scale(1 1) rotate(0) translate(4 280)">
<title>dependencies</title>
<polygon fill="#ffffff" stroke="transparent" points="-4,4 -4,-280 799,-280 799,4 -4,4"/>
<text text-anchor="start" x="376.5091" y="-42.4" font-family="sans-serif" font-weight="bold" font-size="14.00" fill="#000000">Legend</text>
<polygon fill="#ffffb3" stroke="transparent" points="163.5,-10 163.5,-30 183.5,-30 183.5,-10 163.5,-10"/>
<text text-anchor="start" x="187.129" y="-15.4" font-family="sans-serif" font-size="14.00" fill="#000000"> &#160;Declarations</text>
<polygon fill="#8dd3c7" stroke="transparent" points="276.5,-10 276.5,-30 296.5,-30 296.5,-10 276.5,-10"/>
<text text-anchor="start" x="300.2251" y="-15.4" font-family="sans-serif" font-size="14.00" fill="#000000"> &#160;Module</text>
<polygon fill="#80b1d3" stroke="transparent" points="362.5,-10 362.5,-30 382.5,-30 382.5,-10 362.5,-10"/>
<text text-anchor="start" x="386.2812" y="-15.4" font-family="sans-serif" font-size="14.00" fill="#000000"> &#160;Bootstrap</text>
<polygon fill="#fdb462" stroke="transparent" points="459.5,-10 459.5,-30 479.5,-30 479.5,-10 459.5,-10"/>
<text text-anchor="start" x="483.1732" y="-15.4" font-family="sans-serif" font-size="14.00" fill="#000000"> &#160;Providers</text>
<polygon fill="#fb8072" stroke="transparent" points="555.5,-10 555.5,-30 575.5,-30 575.5,-10 555.5,-10"/>
<text text-anchor="start" x="579.2258" y="-15.4" font-family="sans-serif" font-size="14.00" fill="#000000"> &#160;Exports</text>
<g id="clust1" class="cluster">
<title>cluster_AppModule</title>
<polygon fill="none" stroke="#000000" stroke-dasharray="1,5" points="8,-70 8,-268 787,-268 787,-70 8,-70"/>
</g>
<g id="clust2" class="cluster">
<title>cluster_AppModule_declarations</title>
<polygon fill="none" stroke="#000000" points="529,-78 529,-130 779,-130 779,-78 529,-78"/>
</g>
<g id="clust5" class="cluster">
<title>cluster_AppModule_imports</title>
<polygon fill="none" stroke="#000000" points="16,-78 16,-130 521,-130 521,-78 16,-78"/>
</g>
<g id="clust7" class="cluster">
<title>cluster_AppModule_bootstrap</title>
<polygon fill="none" stroke="#000000" points="330,-208 330,-260 454,-260 454,-208 330,-208"/>
</g>
<!-- AppComponent -->
<g id="node1" class="node">
<title>AppComponent</title>
<polygon fill="#ffffb3" stroke="#000000" points="770.9399,-122 665.0601,-122 665.0601,-86 770.9399,-86 770.9399,-122"/>
<text text-anchor="middle" x="718" y="-99.8" font-family="Times,serif" font-size="14.00" fill="#000000">AppComponent</text>
</g>
<!-- AppModule -->
<g id="node3" class="node">
<title>AppModule</title>
<polygon fill="#8dd3c7" stroke="#000000" points="433.6571,-187 430.6571,-191 409.6571,-191 406.6571,-187 350.3429,-187 350.3429,-151 433.6571,-151 433.6571,-187"/>
<text text-anchor="middle" x="392" y="-164.8" font-family="Times,serif" font-size="14.00" fill="#000000">AppModule</text>
</g>
<!-- AppComponent&#45;&gt;AppModule -->
<g id="edge1" class="edge">
<title>AppComponent&#45;&gt;AppModule</title>
<path fill="none" stroke="#000000" d="M718,-122.2843C718,-143.3211 718,-175 718,-175 718,-175 443.9514,-175 443.9514,-175"/>
<polygon fill="#000000" stroke="#000000" points="443.9514,-171.5001 433.9514,-175 443.9514,-178.5001 443.9514,-171.5001"/>
</g>
<!-- MainComponent -->
<g id="node2" class="node">
<title>MainComponent</title>
<polygon fill="#ffffb3" stroke="#000000" points="647.3823,-122 536.6177,-122 536.6177,-86 647.3823,-86 647.3823,-122"/>
<text text-anchor="middle" x="592" y="-99.8" font-family="Times,serif" font-size="14.00" fill="#000000">MainComponent</text>
</g>
<!-- MainComponent&#45;&gt;AppModule -->
<g id="edge2" class="edge">
<title>MainComponent&#45;&gt;AppModule</title>
<path fill="none" stroke="#000000" d="M592,-122.0225C592,-139.3734 592,-163 592,-163 592,-163 443.9266,-163 443.9266,-163"/>
<polygon fill="#000000" stroke="#000000" points="443.9266,-159.5001 433.9266,-163 443.9265,-166.5001 443.9266,-159.5001"/>
</g>
<!-- AppComponent  -->
<g id="node8" class="node">
<title>AppComponent </title>
<polygon fill="#80b1d3" stroke="#000000" points="446.439,-252 337.561,-252 337.561,-216 446.439,-216 446.439,-252"/>
<text text-anchor="middle" x="392" y="-229.8" font-family="Times,serif" font-size="14.00" fill="#000000">AppComponent </text>
</g>
<!-- AppModule&#45;&gt;AppComponent  -->
<g id="edge7" class="edge">
<title>AppModule&#45;&gt;AppComponent </title>
<path fill="none" stroke="#000000" stroke-dasharray="1,5" d="M392,-187.1061C392,-187.1061 392,-205.991 392,-205.991"/>
<polygon fill="#000000" stroke="#000000" points="388.5001,-205.9909 392,-215.991 395.5001,-205.991 388.5001,-205.9909"/>
</g>
<!-- BrowserModule -->
<g id="node4" class="node">
<title>BrowserModule</title>
<polygon fill="#8dd3c7" stroke="#000000" points="513.4734,-122 510.4734,-126 489.4734,-126 486.4734,-122 406.5266,-122 406.5266,-86 513.4734,-86 513.4734,-122"/>
<text text-anchor="middle" x="460" y="-99.8" font-family="Times,serif" font-size="14.00" fill="#000000">BrowserModule</text>
</g>
<!-- BrowserModule&#45;&gt;AppModule -->
<g id="edge3" class="edge">
<title>BrowserModule&#45;&gt;AppModule</title>
<path fill="none" stroke="#000000" d="M420.1708,-122.1061C420.1708,-122.1061 420.1708,-140.991 420.1708,-140.991"/>
<polygon fill="#000000" stroke="#000000" points="416.6708,-140.9909 420.1708,-150.991 423.6708,-140.991 416.6708,-140.9909"/>
</g>
<!-- AppRoutingModule -->
<g id="node5" class="node">
<title>AppRoutingModule</title>
<polygon fill="#8dd3c7" stroke="#000000" points="388.2744,-122 385.2744,-126 364.2744,-126 361.2744,-122 259.7256,-122 259.7256,-86 388.2744,-86 388.2744,-122"/>
<text text-anchor="middle" x="324" y="-99.8" font-family="Times,serif" font-size="14.00" fill="#000000">AppRoutingModule</text>
</g>
<!-- AppRoutingModule&#45;&gt;AppModule -->
<g id="edge4" class="edge">
<title>AppRoutingModule&#45;&gt;AppModule</title>
<path fill="none" stroke="#000000" d="M369.2795,-122.1061C369.2795,-122.1061 369.2795,-140.991 369.2795,-140.991"/>
<polygon fill="#000000" stroke="#000000" points="365.7795,-140.9909 369.2795,-150.991 372.7795,-140.991 365.7795,-140.9909"/>
</g>
<!-- FeatureModule -->
<g id="node6" class="node">
<title>FeatureModule</title>
<polygon fill="#8dd3c7" stroke="#000000" points="241.5285,-122 238.5285,-126 217.5285,-126 214.5285,-122 140.4715,-122 140.4715,-86 241.5285,-86 241.5285,-122"/>
<text text-anchor="middle" x="191" y="-99.8" font-family="Times,serif" font-size="14.00" fill="#000000">FeatureModule</text>
</g>
<!-- FeatureModule&#45;&gt;AppModule -->
<g id="edge5" class="edge">
<title>FeatureModule&#45;&gt;AppModule</title>
<path fill="none" stroke="#000000" d="M191,-122.0225C191,-139.3734 191,-163 191,-163 191,-163 339.8638,-163 339.8638,-163"/>
<polygon fill="#000000" stroke="#000000" points="339.8638,-166.5001 349.8638,-163 339.8638,-159.5001 339.8638,-166.5001"/>
</g>
<!-- SharedModule -->
<g id="node7" class="node">
<title>SharedModule</title>
<polygon fill="#8dd3c7" stroke="#000000" points="122.4231,-122 119.4231,-126 98.4231,-126 95.4231,-122 23.5769,-122 23.5769,-86 122.4231,-86 122.4231,-122"/>
<text text-anchor="middle" x="73" y="-99.8" font-family="Times,serif" font-size="14.00" fill="#000000">SharedModule</text>
</g>
<!-- SharedModule&#45;&gt;AppModule -->
<g id="edge6" class="edge">
<title>SharedModule&#45;&gt;AppModule</title>
<path fill="none" stroke="#000000" d="M73,-122.2843C73,-143.3211 73,-175 73,-175 73,-175 340.2963,-175 340.2963,-175"/>
<polygon fill="#000000" stroke="#000000" points="340.2964,-178.5001 350.2963,-175 340.2963,-171.5001 340.2964,-178.5001"/>
</g>
</g>
</svg>
