<?xml version="1.0" encoding="UTF-8" standalone="no"?>
<!DOCTYPE svg PUBLIC "-//W3C//DTD SVG 1.1//EN"
 "http://www.w3.org/Graphics/SVG/1.1/DTD/svg11.dtd">
<!-- Generated by graphviz version 2.40.1 (20161225.0304)
 -->
<!-- Title: dependencies Pages: 1 -->
<svg width="2319pt" height="360pt"
 viewBox="0.00 0.00 2319.00 360.00" xmlns="http://www.w3.org/2000/svg" xmlns:xlink="http://www.w3.org/1999/xlink">
<g id="graph0" class="graph" transform="scale(1 1) rotate(0) translate(4 356)">
<title>dependencies</title>
<polygon fill="#ffffff" stroke="transparent" points="-4,4 -4,-356 2315,-356 2315,4 -4,4"/>
<text text-anchor="start" x="1134.5091" y="-42.4" font-family="sans-serif" font-weight="bold" font-size="14.00" fill="#000000">Legend</text>
<polygon fill="#ffffb3" stroke="transparent" points="921.5,-10 921.5,-30 941.5,-30 941.5,-10 921.5,-10"/>
<text text-anchor="start" x="945.129" y="-15.4" font-family="sans-serif" font-size="14.00" fill="#000000"> &#160;Declarations</text>
<polygon fill="#8dd3c7" stroke="transparent" points="1034.5,-10 1034.5,-30 1054.5,-30 1054.5,-10 1034.5,-10"/>
<text text-anchor="start" x="1058.2251" y="-15.4" font-family="sans-serif" font-size="14.00" fill="#000000"> &#160;Module</text>
<polygon fill="#80b1d3" stroke="transparent" points="1120.5,-10 1120.5,-30 1140.5,-30 1140.5,-10 1120.5,-10"/>
<text text-anchor="start" x="1144.2812" y="-15.4" font-family="sans-serif" font-size="14.00" fill="#000000"> &#160;Bootstrap</text>
<polygon fill="#fdb462" stroke="transparent" points="1217.5,-10 1217.5,-30 1237.5,-30 1237.5,-10 1217.5,-10"/>
<text text-anchor="start" x="1241.1732" y="-15.4" font-family="sans-serif" font-size="14.00" fill="#000000"> &#160;Providers</text>
<polygon fill="#fb8072" stroke="transparent" points="1313.5,-10 1313.5,-30 1333.5,-30 1333.5,-10 1313.5,-10"/>
<text text-anchor="start" x="1337.2258" y="-15.4" font-family="sans-serif" font-size="14.00" fill="#000000"> &#160;Exports</text>
<g id="clust1" class="cluster">
<title>cluster_AppModule</title>
<polygon fill="none" stroke="#000000" stroke-dasharray="1,5" points="712,-70 712,-344 1372,-344 1372,-70 712,-70"/>
</g>
<g id="clust2" class="cluster">
<title>cluster_AppModule_declarations</title>
<polygon fill="none" stroke="#000000" points="1114,-154 1114,-206 1364,-206 1364,-154 1114,-154"/>
</g>
<g id="clust5" class="cluster">
<title>cluster_AppModule_imports</title>
<polygon fill="none" stroke="#000000" points="720,-78 720,-206 1106,-206 1106,-78 720,-78"/>
</g>
<g id="clust7" class="cluster">
<title>cluster_AppModule_bootstrap</title>
<polygon fill="none" stroke="#000000" points="921,-284 921,-336 1045,-336 1045,-284 921,-284"/>
</g>
<g id="clust9" class="cluster">
<title>cluster_AppRoutingModule</title>
<polygon fill="none" stroke="#000000" stroke-dasharray="1,5" points="1380,-146 1380,-214 1716,-214 1716,-146 1380,-146"/>
</g>
<g id="clust11" class="cluster">
<title>cluster_AppRoutingModule_imports</title>
<polygon fill="none" stroke="#000000" points="1514,-154 1514,-206 1708,-206 1708,-154 1514,-154"/>
</g>
<g id="clust12" class="cluster">
<title>cluster_AppRoutingModule_exports</title>
<polygon fill="none" stroke="#000000" points="1388,-154 1388,-206 1506,-206 1506,-154 1388,-154"/>
</g>
<g id="clust15" class="cluster">
<title>cluster_FeatureModule</title>
<polygon fill="none" stroke="#000000" stroke-dasharray="1,5" points="8,-70 8,-138 704,-138 704,-70 8,-70"/>
</g>
<g id="clust16" class="cluster">
<title>cluster_FeatureModule_declarations</title>
<polygon fill="none" stroke="#000000" points="432,-78 432,-130 696,-130 696,-78 432,-78"/>
</g>
<g id="clust19" class="cluster">
<title>cluster_FeatureModule_imports</title>
<polygon fill="none" stroke="#000000" points="296,-78 296,-130 424,-130 424,-78 296,-78"/>
</g>
<g id="clust20" class="cluster">
<title>cluster_FeatureModule_exports</title>
<polygon fill="none" stroke="#000000" points="16,-78 16,-130 288,-130 288,-78 16,-78"/>
</g>
<g id="clust23" class="cluster">
<title>cluster_SharedModule</title>
<polygon fill="none" stroke="#000000" stroke-dasharray="1,5" points="1724,-146 1724,-214 2303,-214 2303,-146 1724,-146"/>
</g>
<g id="clust24" class="cluster">
<title>cluster_SharedModule_declarations</title>
<polygon fill="none" stroke="#000000" points="2021,-154 2021,-206 2295,-206 2295,-154 2021,-154"/>
</g>
<g id="clust28" class="cluster">
<title>cluster_SharedModule_exports</title>
<polygon fill="none" stroke="#000000" points="1732,-154 1732,-206 2013,-206 2013,-154 1732,-154"/>
</g>
<!-- AppComponent -->
<g id="node1" class="node">
<title>AppComponent</title>
<polygon fill="#ffffb3" stroke="#000000" points="1355.9399,-198 1250.0601,-198 1250.0601,-162 1355.9399,-162 1355.9399,-198"/>
<text text-anchor="middle" x="1303" y="-175.8" font-family="Times,serif" font-size="14.00" fill="#000000">AppComponent</text>
</g>
<!-- AppModule -->
<g id="node3" class="node">
<title>AppModule</title>
<polygon fill="#8dd3c7" stroke="#000000" points="1024.6571,-263 1021.6571,-267 1000.6571,-267 997.6571,-263 941.3429,-263 941.3429,-227 1024.6571,-227 1024.6571,-263"/>
<text text-anchor="middle" x="983" y="-240.8" font-family="Times,serif" font-size="14.00" fill="#000000">AppModule</text>
</g>
<!-- AppComponent&#45;&gt;AppModule -->
<g id="edge1" class="edge">
<title>AppComponent&#45;&gt;AppModule</title>
<path fill="none" stroke="#000000" d="M1303,-198.1061C1303,-217.3391 1303,-245 1303,-245 1303,-245 1034.8344,-245 1034.8344,-245"/>
<polygon fill="#000000" stroke="#000000" points="1034.8344,-241.5001 1024.8344,-245 1034.8344,-248.5001 1034.8344,-241.5001"/>
</g>
<!-- MainComponent -->
<g id="node2" class="node">
<title>MainComponent</title>
<polygon fill="#ffffb3" stroke="#000000" points="1232.3823,-198 1121.6177,-198 1121.6177,-162 1232.3823,-162 1232.3823,-198"/>
<text text-anchor="middle" x="1177" y="-175.8" font-family="Times,serif" font-size="14.00" fill="#000000">MainComponent</text>
</g>
<!-- MainComponent&#45;&gt;AppModule -->
<g id="edge2" class="edge">
<title>MainComponent&#45;&gt;AppModule</title>
<path fill="none" stroke="#000000" d="M1121.5843,-189C1076.3314,-189 1019.8203,-189 1019.8203,-189 1019.8203,-189 1019.8203,-216.973 1019.8203,-216.973"/>
<polygon fill="#000000" stroke="#000000" points="1016.3204,-216.973 1019.8203,-226.973 1023.3204,-216.973 1016.3204,-216.973"/>
</g>
<!-- AppComponent  -->
<g id="node8" class="node">
<title>AppComponent </title>
<polygon fill="#80b1d3" stroke="#000000" points="1037.439,-328 928.561,-328 928.561,-292 1037.439,-292 1037.439,-328"/>
<text text-anchor="middle" x="983" y="-305.8" font-family="Times,serif" font-size="14.00" fill="#000000">AppComponent </text>
</g>
<!-- AppModule&#45;&gt;AppComponent  -->
<g id="edge7" class="edge">
<title>AppModule&#45;&gt;AppComponent </title>
<path fill="none" stroke="#000000" stroke-dasharray="1,5" d="M983,-263.1061C983,-263.1061 983,-281.991 983,-281.991"/>
<polygon fill="#000000" stroke="#000000" points="979.5001,-281.9909 983,-291.991 986.5001,-281.991 979.5001,-281.9909"/>
</g>
<!-- BrowserModule -->
<g id="node4" class="node">
<title>BrowserModule</title>
<polygon fill="#8dd3c7" stroke="#000000" points="834.4734,-122 831.4734,-126 810.4734,-126 807.4734,-122 727.5266,-122 727.5266,-86 834.4734,-86 834.4734,-122"/>
<text text-anchor="middle" x="781" y="-99.8" font-family="Times,serif" font-size="14.00" fill="#000000">BrowserModule</text>
</g>
<!-- BrowserModule&#45;&gt;AppModule -->
<g id="edge3" class="edge">
<title>BrowserModule&#45;&gt;AppModule</title>
<path fill="none" stroke="#000000" d="M834.5879,-104C839.9984,-104 843.5498,-104 843.5498,-104 843.5498,-104 843.5498,-245 843.5498,-245 843.5498,-245 931.1603,-245 931.1603,-245"/>
<polygon fill="#000000" stroke="#000000" points="931.1604,-248.5001 941.1603,-245 931.1603,-241.5001 931.1604,-248.5001"/>
</g>
<!-- AppRoutingModule -->
<g id="node5" class="node">
<title>AppRoutingModule</title>
<polygon fill="#8dd3c7" stroke="#000000" points="981.2744,-122 978.2744,-126 957.2744,-126 954.2744,-122 852.7256,-122 852.7256,-86 981.2744,-86 981.2744,-122"/>
<text text-anchor="middle" x="917" y="-99.8" font-family="Times,serif" font-size="14.00" fill="#000000">AppRoutingModule</text>
</g>
<!-- AppRoutingModule&#45;&gt;AppModule -->
<g id="edge4" class="edge">
<title>AppRoutingModule&#45;&gt;AppModule</title>
<path fill="none" stroke="#000000" d="M973.344,-122.1446C973.344,-122.1446 973.344,-216.925 973.344,-216.925"/>
<polygon fill="#000000" stroke="#000000" points="969.8441,-216.925 973.344,-226.925 976.8441,-216.925 969.8441,-216.925"/>
</g>
<!-- RouterModule  -->
<g id="node10" class="node">
<title>RouterModule </title>
<polygon fill="#fb8072" stroke="#000000" points="1497.6523,-198 1396.3477,-198 1396.3477,-162 1497.6523,-162 1497.6523,-198"/>
<text text-anchor="middle" x="1447" y="-175.8" font-family="Times,serif" font-size="14.00" fill="#000000">RouterModule </text>
</g>
<!-- AppRoutingModule&#45;&gt;RouterModule  -->
<g id="edge9" class="edge">
<title>AppRoutingModule&#45;&gt;RouterModule </title>
<path fill="none" stroke="#000000" stroke-dasharray="5,2" d="M957.2579,-122.1467C957.2579,-135.7395 957.2579,-152 957.2579,-152 957.2579,-152 1447,-152 1447,-152 1447,-152 1447,-152.9793 1447,-152.9793"/>
<polygon fill="#000000" stroke="#000000" points="1443.5001,-151.793 1447,-161.793 1450.5001,-151.7931 1443.5001,-151.793"/>
</g>
<!-- FeatureModule -->
<g id="node6" class="node">
<title>FeatureModule</title>
<polygon fill="#8dd3c7" stroke="#000000" points="829.5285,-198 826.5285,-202 805.5285,-202 802.5285,-198 728.4715,-198 728.4715,-162 829.5285,-162 829.5285,-198"/>
<text text-anchor="middle" x="779" y="-175.8" font-family="Times,serif" font-size="14.00" fill="#000000">FeatureModule</text>
</g>
<!-- FeatureModule&#45;&gt;AppModule -->
<g id="edge5" class="edge">
<title>FeatureModule&#45;&gt;AppModule</title>
<path fill="none" stroke="#000000" d="M829.9076,-180C885.0678,-180 965.301,-180 965.301,-180 965.301,-180 965.301,-216.8939 965.301,-216.8939"/>
<polygon fill="#000000" stroke="#000000" points="961.8011,-216.8938 965.301,-226.8939 968.8011,-216.8939 961.8011,-216.8938"/>
</g>
<!-- LoginComponent  -->
<g id="node14" class="node">
<title>LoginComponent </title>
<polygon fill="#fb8072" stroke="#000000" points="280.2759,-122 161.7241,-122 161.7241,-86 280.2759,-86 280.2759,-122"/>
<text text-anchor="middle" x="221" y="-99.8" font-family="Times,serif" font-size="14.00" fill="#000000">LoginComponent </text>
</g>
<!-- FeatureModule&#45;&gt;LoginComponent  -->
<g id="edge14" class="edge">
<title>FeatureModule&#45;&gt;LoginComponent </title>
<path fill="none" stroke="#000000" stroke-dasharray="5,2" d="M728.002,-186C590.2532,-186 221,-186 221,-186 221,-186 221,-132.1985 221,-132.1985"/>
<polygon fill="#000000" stroke="#000000" points="224.5001,-132.1984 221,-122.1985 217.5001,-132.1985 224.5001,-132.1984"/>
</g>
<!-- HomeComponent  -->
<g id="node15" class="node">
<title>HomeComponent </title>
<polygon fill="#fb8072" stroke="#000000" points="143.5442,-122 24.4558,-122 24.4558,-86 143.5442,-86 143.5442,-122"/>
<text text-anchor="middle" x="84" y="-99.8" font-family="Times,serif" font-size="14.00" fill="#000000">HomeComponent </text>
</g>
<!-- FeatureModule&#45;&gt;HomeComponent  -->
<g id="edge15" class="edge">
<title>FeatureModule&#45;&gt;HomeComponent </title>
<path fill="none" stroke="#000000" stroke-dasharray="5,2" d="M728.4575,-192C568.526,-192 84,-192 84,-192 84,-192 84,-132.2337 84,-132.2337"/>
<polygon fill="#000000" stroke="#000000" points="87.5001,-132.2336 84,-122.2337 80.5001,-132.2337 87.5001,-132.2336"/>
</g>
<!-- SharedModule -->
<g id="node7" class="node">
<title>SharedModule</title>
<polygon fill="#8dd3c7" stroke="#000000" points="1098.4231,-122 1095.4231,-126 1074.4231,-126 1071.4231,-122 999.5769,-122 999.5769,-86 1098.4231,-86 1098.4231,-122"/>
<text text-anchor="middle" x="1049" y="-99.8" font-family="Times,serif" font-size="14.00" fill="#000000">SharedModule</text>
</g>
<!-- SharedModule&#45;&gt;AppModule -->
<g id="edge6" class="edge">
<title>SharedModule&#45;&gt;AppModule</title>
<path fill="none" stroke="#000000" d="M1014.8125,-122.1446C1014.8125,-122.1446 1014.8125,-216.925 1014.8125,-216.925"/>
<polygon fill="#000000" stroke="#000000" points="1011.3126,-216.925 1014.8125,-226.925 1018.3126,-216.925 1011.3126,-216.925"/>
</g>
<!-- SharedModule&#45;&gt;FeatureModule -->
<g id="edge13" class="edge">
<title>SharedModule&#45;&gt;FeatureModule</title>
<path fill="none" stroke="#000000" d="M1009.8046,-122.308C1009.8046,-142.1455 1009.8046,-171 1009.8046,-171 1009.8046,-171 839.6511,-171 839.6511,-171"/>
<polygon fill="#000000" stroke="#000000" points="839.6511,-167.5001 829.6511,-171 839.651,-174.5001 839.6511,-167.5001"/>
</g>
<!-- HeaderComponent  -->
<g id="node18" class="node">
<title>HeaderComponent </title>
<polygon fill="#fb8072" stroke="#000000" points="2004.7436,-198 1879.2564,-198 1879.2564,-162 2004.7436,-162 2004.7436,-198"/>
<text text-anchor="middle" x="1942" y="-175.8" font-family="Times,serif" font-size="14.00" fill="#000000">HeaderComponent </text>
</g>
<!-- SharedModule&#45;&gt;HeaderComponent  -->
<g id="edge19" class="edge">
<title>SharedModule&#45;&gt;HeaderComponent </title>
<path fill="none" stroke="#000000" stroke-dasharray="5,2" d="M1098.2836,-108C1285.4912,-108 1942,-108 1942,-108 1942,-108 1942,-151.8314 1942,-151.8314"/>
<polygon fill="#000000" stroke="#000000" points="1938.5001,-151.8313 1942,-161.8314 1945.5001,-151.8314 1938.5001,-151.8313"/>
</g>
<!-- FooterComponent  -->
<g id="node19" class="node">
<title>FooterComponent </title>
<polygon fill="#fb8072" stroke="#000000" points="1861.8814,-198 1740.1186,-198 1740.1186,-162 1861.8814,-162 1861.8814,-198"/>
<text text-anchor="middle" x="1801" y="-175.8" font-family="Times,serif" font-size="14.00" fill="#000000">FooterComponent </text>
</g>
<!-- SharedModule&#45;&gt;FooterComponent  -->
<g id="edge20" class="edge">
<title>SharedModule&#45;&gt;FooterComponent </title>
<path fill="none" stroke="#000000" stroke-dasharray="5,2" d="M1098.3408,-115C1265.6406,-115 1801,-115 1801,-115 1801,-115 1801,-151.8939 1801,-151.8939"/>
<polygon fill="#000000" stroke="#000000" points="1797.5001,-151.8938 1801,-161.8939 1804.5001,-151.8939 1797.5001,-151.8938"/>
</g>
<!-- RouterModule.forRoot(args) -->
<g id="node9" class="node">
<title>RouterModule.forRoot(args)</title>
<polygon fill="#8dd3c7" stroke="#000000" points="1699.8419,-198 1696.8419,-202 1675.8419,-202 1672.8419,-198 1522.1581,-198 1522.1581,-162 1699.8419,-162 1699.8419,-198"/>
<text text-anchor="middle" x="1611" y="-175.8" font-family="Times,serif" font-size="14.00" fill="#000000">RouterModule.forRoot(args)</text>
</g>
<!-- RouterModule.forRoot(args)&#45;&gt;AppRoutingModule -->
<g id="edge8" class="edge">
<title>RouterModule.forRoot(args)&#45;&gt;AppRoutingModule</title>
<path fill="none" stroke="#000000" d="M1611,-161.8533C1611,-148.2605 1611,-132 1611,-132 1611,-132 949.2149,-132 949.2149,-132 949.2149,-132 949.2149,-131.0207 949.2149,-131.0207"/>
<polygon fill="#000000" stroke="#000000" points="952.715,-132.2069 949.2149,-122.207 945.715,-132.207 952.715,-132.2069"/>
</g>
<!-- LoginComponent -->
<g id="node11" class="node">
<title>LoginComponent</title>
<polygon fill="#ffffb3" stroke="#000000" points="688.2758,-122 573.7242,-122 573.7242,-86 688.2758,-86 688.2758,-122"/>
<text text-anchor="middle" x="631" y="-99.8" font-family="Times,serif" font-size="14.00" fill="#000000">LoginComponent</text>
</g>
<!-- LoginComponent&#45;&gt;FeatureModule -->
<g id="edge10" class="edge">
<title>LoginComponent&#45;&gt;FeatureModule</title>
<path fill="none" stroke="#000000" d="M631,-122.1686C631,-141.0898 631,-168 631,-168 631,-168 718.0668,-168 718.0668,-168"/>
<polygon fill="#000000" stroke="#000000" points="718.0668,-171.5001 728.0668,-168 718.0668,-164.5001 718.0668,-171.5001"/>
</g>
<!-- HomeComponent -->
<g id="node12" class="node">
<title>HomeComponent</title>
<polygon fill="#ffffb3" stroke="#000000" points="555.5451,-122 440.4549,-122 440.4549,-86 555.5451,-86 555.5451,-122"/>
<text text-anchor="middle" x="498" y="-99.8" font-family="Times,serif" font-size="14.00" fill="#000000">HomeComponent</text>
</g>
<!-- HomeComponent&#45;&gt;FeatureModule -->
<g id="edge11" class="edge">
<title>HomeComponent&#45;&gt;FeatureModule</title>
<path fill="none" stroke="#000000" d="M498,-122.0267C498,-142.7672 498,-174 498,-174 498,-174 718.4383,-174 718.4383,-174"/>
<polygon fill="#000000" stroke="#000000" points="718.4383,-177.5001 728.4383,-174 718.4383,-170.5001 718.4383,-177.5001"/>
</g>
<!-- CommonModule -->
<g id="node13" class="node">
<title>CommonModule</title>
<polygon fill="#8dd3c7" stroke="#000000" points="415.6681,-122 412.6681,-126 391.6681,-126 388.6681,-122 304.3319,-122 304.3319,-86 415.6681,-86 415.6681,-122"/>
<text text-anchor="middle" x="360" y="-99.8" font-family="Times,serif" font-size="14.00" fill="#000000">CommonModule</text>
</g>
<!-- CommonModule&#45;&gt;FeatureModule -->
<g id="edge12" class="edge">
<title>CommonModule&#45;&gt;FeatureModule</title>
<path fill="none" stroke="#000000" d="M378.6113,-122.0109C378.6113,-144.4852 378.6113,-180 378.6113,-180 378.6113,-180 718.2905,-180 718.2905,-180"/>
<polygon fill="#000000" stroke="#000000" points="718.2905,-183.5001 728.2905,-180 718.2905,-176.5001 718.2905,-183.5001"/>
</g>
<!-- CommonModule&#45;&gt;SharedModule -->
<g id="edge18" class="edge">
<title>CommonModule&#45;&gt;SharedModule</title>
<path fill="none" stroke="#000000" d="M341.3887,-122.1097C341.3887,-131.897 341.3887,-142 341.3887,-142 341.3887,-142 1004.7968,-142 1004.7968,-142 1004.7968,-142 1004.7968,-132.1097 1004.7968,-132.1097"/>
<polygon fill="#000000" stroke="#000000" points="1008.2969,-132.1096 1004.7968,-122.1097 1001.2969,-132.1097 1008.2969,-132.1096"/>
</g>
<!-- HeaderComponent -->
<g id="node16" class="node">
<title>HeaderComponent</title>
<polygon fill="#ffffb3" stroke="#000000" points="2286.7437,-198 2165.2563,-198 2165.2563,-162 2286.7437,-162 2286.7437,-198"/>
<text text-anchor="middle" x="2226" y="-175.8" font-family="Times,serif" font-size="14.00" fill="#000000">HeaderComponent</text>
</g>
<!-- HeaderComponent&#45;&gt;SharedModule -->
<g id="edge16" class="edge">
<title>HeaderComponent&#45;&gt;SharedModule</title>
<path fill="none" stroke="#000000" d="M2226,-161.7616C2226,-136.5171 2226,-94 2226,-94 2226,-94 1108.4485,-94 1108.4485,-94"/>
<polygon fill="#000000" stroke="#000000" points="1108.4485,-90.5001 1098.4485,-94 1108.4484,-97.5001 1108.4485,-90.5001"/>
</g>
<!-- FooterComponent -->
<g id="node17" class="node">
<title>FooterComponent</title>
<polygon fill="#ffffb3" stroke="#000000" points="2146.8809,-198 2029.1191,-198 2029.1191,-162 2146.8809,-162 2146.8809,-198"/>
<text text-anchor="middle" x="2088" y="-175.8" font-family="Times,serif" font-size="14.00" fill="#000000">FooterComponent</text>
</g>
<!-- FooterComponent&#45;&gt;SharedModule -->
<g id="edge17" class="edge">
<title>FooterComponent&#45;&gt;SharedModule</title>
<path fill="none" stroke="#000000" d="M2088,-161.6772C2088,-138.3398 2088,-101 2088,-101 2088,-101 1108.4142,-101 1108.4142,-101"/>
<polygon fill="#000000" stroke="#000000" points="1108.4142,-97.5001 1098.4142,-101 1108.4141,-104.5001 1108.4142,-97.5001"/>
</g>
</g>
</svg>
